M48
;Layer_Color=9474304
;FILE_FORMAT=2:3
INCH,LZ
;TYPE=PLATED
T1F00S00C0.017
T2F00S00C0.028
T3F00S00C0.031
T4F00S00C0.035
T5F00S00C0.039
T6F00S00C0.040
T7F00S00C0.057
T8F00S00C0.060
T9F00S00C0.061
T10F00S00C0.063
T11F00S00C0.114
T12F00S00C0.128
T13F00S00C0.137
%
T01
X03092Y01411
Y01453
Y01509
Y01554
X03516Y01526
X03706Y01329
X038Y01344
X03791Y01296
X03915Y01396
X0406Y01484
X04057Y01542
X04193Y01401
X04004Y01188
X03968
Y01151
X04004
Y01108
X03968
Y01066
X04004
X0775Y01384
X07099Y01652
X07108Y01985
X06609Y0198
X06598Y02389
X06577Y02455
X065Y02422
Y02514
X06529Y02598
X07038Y02648
X07005Y0247
X057Y02395
X0573Y0272
X0577Y02765
X05476Y02895
X05512Y02118
X05425Y0209
X0474Y02525
X04695Y02705
X04685Y02576
X04645Y0256
X046Y02552
X04239Y02373
X0407Y02296
X03977Y02269
X03938Y02149
X0392Y0244
X03827Y02356
X0378Y02366
X03747Y02517
X03651Y02207
X04056Y02632
X0407Y02875
X0413Y0288
X0409Y0292
X04003Y03032
X0396Y03095
X03635Y03032
X02935Y03095
X0282Y0307
X02795Y02972
X02789Y02927
X02774Y02886
X02765Y02735
X02805Y0269
X0279Y0265
X0285Y02595
X02905Y02565
X02895Y02715
X02955Y02704
X0301Y027
X03054Y0269
X03075Y0273
X0312Y02705
Y02117
X03027
X02792Y01933
Y01892
X02747
Y01933
X02703
Y01892
X02655
Y01933
X02525Y02062
X02372Y02667
X0167Y02834
X01641Y02859
X01597Y02775
Y0253
X0162Y03
X0113Y02725
X01467Y0234
X01548Y02099
X01517Y02067
X01182Y04241
X01155Y04214
X01694Y03967
X01724Y03991
X01971Y03536
X02665Y03575
X0267Y03421
X02729Y0342
X027Y0339
X02757Y03385
X0284Y03145
X02895Y03125
X02945Y0314
X02975Y03172
X0302Y03165
X03055Y03195
X02769Y03906
X02729Y0392
X027Y03955
X0255Y0468
X02505Y04675
X0332Y0459
X03475Y04615
X03526Y04614
X0349Y04495
X03425Y04265
X03802Y04116
X0382Y03635
X0388Y03385
X03915Y03335
X0397Y03315
X0398Y0322
X03932Y03225
X03462Y03435
Y03615
X03535Y03765
X04093Y04436
X0494Y03956
X04985Y0378
X05609Y03725
X05501Y04254
X0746Y0439
X07335Y03935
Y03815
X07425Y03835
X07143Y03726
X04714Y04832
X04625Y0479
X0465Y04755
X04625Y04722
X0466Y0469
X03366Y04705
T02
X03139Y01484
X06319Y01428
X06541Y01423
X06319Y018
X07038Y02231
X07581Y0236
X06662Y02671
X06492Y03121
X03075Y02143
X02895Y01913
X02724Y01981
X08225Y0339
T03
X01442Y01189
T04
X03328Y01396
X03428
Y01524
X03328
X04081Y01137
X04415Y01419
X05915Y0118
X03784Y01603
X03819Y01964
X04185Y03005
Y03105
X0124Y02832
X00756Y03657
X04185Y03505
Y03405
Y03305
Y03205
Y0384
Y0394
Y0404
Y0414
Y0424
Y0434
X03954Y0468
X0563Y04535
X0573
X0583
X0593
X0603
X0613
X06155Y03275
X06055
X05955
X05855
X06255
X06355
T05
X03436Y01943
X03536
X03636
X01931Y02211
X01831
X01731
T06
X03618Y0309
X03718
X00989
X00889
Y0319
X00989
Y0329
Y0339
Y0349
Y0359
Y0369
Y0379
X00889
Y0389
Y0399
X00989
Y0409
Y0419
Y0429
Y0439
Y0449
X00889
Y0439
Y0429
Y0419
Y0409
X00989Y0389
X00889Y0369
Y0359
Y0349
Y0339
Y0329
X03618
Y0339
X03718
Y0349
Y0359
Y0369
Y0379
Y0389
Y0399
Y0409
Y0419
Y0429
Y0439
Y0449
X03618
Y0439
Y0429
Y0419
Y0409
Y0399
Y0389
Y0379
Y0369
Y0359
Y0349
X03718Y0329
Y0319
X03618
T07
X06944Y02846
X0716
T08
X06286Y02287
X06086
T09
X05176Y01768
Y01964
Y02161
Y02358
Y02555
Y02752
X05393
Y02555
Y02358
Y02161
Y01964
Y01768
X05609
Y01964
Y02161
Y02358
Y02555
Y02752
Y02988
X05393
X05176
X02568
X02352
X02135
Y02752
Y02555
Y02358
Y02161
Y01964
Y01768
X02352
Y01964
Y02161
Y02358
Y02555
Y02752
X02568
Y02555
Y02358
Y02161
Y01964
Y01768
Y03224
Y03421
Y03618
Y03815
Y04012
Y04208
X02352
Y04012
Y03815
Y03618
Y03421
Y03224
X02135
Y03421
Y03618
Y03815
Y04012
Y04208
X05176
Y04012
Y03815
Y03618
Y03421
Y03224
X05393
Y03421
Y03618
Y03815
Y04012
Y04208
X05609
Y04012
Y03815
Y03618
Y03421
Y03224
T10
X06832Y01499
X07222
X0783Y0159
Y01723
Y0209
Y02223
X07831Y02601
Y02735
Y03085
X08221
Y02735
Y02601
X0822Y02223
Y0209
Y01723
Y0159
X07222Y01633
X07223Y01951
Y02085
Y02413
Y02547
X06833
Y02413
Y02085
Y01951
X06832Y01633
X06854Y03152
Y03286
X0686Y0359
Y03723
Y0405
Y04184
X06859Y04543
Y04677
X07249
Y04543
X07555
Y04677
X0725Y04184
Y0405
Y03723
Y0359
X07244Y03286
Y03152
X07831Y03219
X07831Y03581
Y03715
X07835Y0405
Y04184
X08225
Y0405
X08221Y03715
Y03581
X08221Y03219
X07945Y04543
Y04677
T11
X00678Y01412
X01072
Y01585
X00678
Y02211
Y02384
X01072
Y02211
T12
X00453Y01571
Y02225
X01298
X01298Y01571
T13
X00421Y01163
X08215Y01265
X06319Y02752
X042Y02735
X03657Y0288
X00928Y02878
X01206Y04459
X042Y04595
X0632Y046
X0825Y0461
X00771Y04722
M30
