G04*
G04 #@! TF.GenerationSoftware,Altium Limited,Altium Designer,22.10.1 (41)*
G04*
G04 Layer_Color=8388736*
%FSLAX23Y23*%
%MOIN*%
G70*
G04*
G04 #@! TF.SameCoordinates,75F1CFA2-9E1D-427A-8FB2-C6D19FE5AEEE*
G04*
G04*
G04 #@! TF.FilePolarity,Negative*
G04*
G01*
G75*
%ADD26R,0.039X0.039*%
%ADD32R,0.039X0.039*%
%ADD46R,0.034X0.041*%
%ADD47R,0.042X0.101*%
%ADD48R,0.223X0.245*%
%ADD49R,0.036X0.036*%
%ADD50R,0.041X0.037*%
%ADD51R,0.041X0.034*%
%ADD52R,0.066X0.030*%
%ADD53R,0.116X0.144*%
%ADD54R,0.144X0.104*%
%ADD55R,0.037X0.041*%
%ADD56R,0.051X0.030*%
%ADD57R,0.093X0.160*%
%ADD58R,0.084X0.026*%
%ADD59R,0.112X0.226*%
%ADD60R,0.032X0.075*%
G04:AMPARAMS|DCode=61|XSize=32mil|YSize=71mil|CornerRadius=5mil|HoleSize=0mil|Usage=FLASHONLY|Rotation=270.000|XOffset=0mil|YOffset=0mil|HoleType=Round|Shape=RoundedRectangle|*
%AMROUNDEDRECTD61*
21,1,0.032,0.061,0,0,270.0*
21,1,0.022,0.071,0,0,270.0*
1,1,0.010,-0.031,-0.011*
1,1,0.010,-0.031,0.011*
1,1,0.010,0.031,0.011*
1,1,0.010,0.031,-0.011*
%
%ADD61ROUNDEDRECTD61*%
%ADD62O,0.063X0.041*%
%ADD63R,0.054X0.022*%
%ADD64R,0.076X0.130*%
%ADD65C,0.144*%
%ADD66C,0.093*%
%ADD67C,0.077*%
%ADD68C,0.065*%
%ADD69R,0.065X0.065*%
%ADD70C,0.061*%
%ADD71R,0.061X0.061*%
%ADD72C,0.066*%
%ADD73R,0.066X0.066*%
%ADD74C,0.086*%
%ADD75R,0.089X0.089*%
%ADD76C,0.089*%
%ADD77C,0.083*%
%ADD78R,0.083X0.083*%
%ADD79R,0.061X0.061*%
%ADD80O,0.065X0.065*%
%ADD81O,0.065X0.067*%
%ADD82C,0.037*%
%ADD83C,0.056*%
%ADD84C,0.256*%
%ADD85C,0.176*%
D26*
X3824Y2444D02*
D03*
Y2510D02*
D03*
X1465Y2691D02*
D03*
X6655Y4723D02*
D03*
Y4657D02*
D03*
X6658Y3288D02*
D03*
Y3221D02*
D03*
X6655Y3723D02*
D03*
Y3657D02*
D03*
X6659Y2042D02*
D03*
Y2108D02*
D03*
X7630Y2671D02*
D03*
Y2738D02*
D03*
Y4157D02*
D03*
Y4223D02*
D03*
Y3723D02*
D03*
Y3657D02*
D03*
Y2157D02*
D03*
Y2223D02*
D03*
X6655Y1723D02*
D03*
Y1657D02*
D03*
X6662Y2548D02*
D03*
Y2481D02*
D03*
X6655Y4157D02*
D03*
Y4223D02*
D03*
X7630Y1657D02*
D03*
Y1723D02*
D03*
X7632Y3221D02*
D03*
Y3155D02*
D03*
X1465Y2624D02*
D03*
X1535Y2408D02*
D03*
Y2342D02*
D03*
D32*
X4272Y1513D02*
D03*
X4206D02*
D03*
X4048Y1367D02*
D03*
X4115D02*
D03*
X7852Y4390D02*
D03*
X7785D02*
D03*
X1923Y2820D02*
D03*
X1857D02*
D03*
D46*
X3573Y1604D02*
D03*
X3629D02*
D03*
X3567Y1449D02*
D03*
X3623D02*
D03*
Y1524D02*
D03*
X3567D02*
D03*
X7629Y4390D02*
D03*
X7685D02*
D03*
X3623Y1374D02*
D03*
X3567D02*
D03*
X1763Y2820D02*
D03*
X1707D02*
D03*
D47*
X2876Y1743D02*
D03*
X2688D02*
D03*
X2981Y1687D02*
D03*
X3169D02*
D03*
D48*
X2782Y1467D02*
D03*
X3075Y1964D02*
D03*
D49*
X1240Y2680D02*
D03*
Y2625D02*
D03*
X1165Y2680D02*
D03*
Y2625D02*
D03*
D50*
X1315Y2625D02*
D03*
X1390D02*
D03*
Y2680D02*
D03*
X3947Y1894D02*
D03*
Y1950D02*
D03*
X4048Y1894D02*
D03*
Y1950D02*
D03*
X1550Y1470D02*
D03*
Y1526D02*
D03*
X1570Y1668D02*
D03*
Y1612D02*
D03*
X1315Y2680D02*
D03*
D51*
X3947Y1487D02*
D03*
Y1543D02*
D03*
X6655Y4558D02*
D03*
Y4502D02*
D03*
X6660Y2413D02*
D03*
Y2357D02*
D03*
X6655Y3502D02*
D03*
Y3558D02*
D03*
X7630Y2579D02*
D03*
Y2524D02*
D03*
X3882Y2021D02*
D03*
Y2076D02*
D03*
X3902Y2205D02*
D03*
Y2261D02*
D03*
X3977Y1423D02*
D03*
Y1367D02*
D03*
X6659Y3081D02*
D03*
Y3137D02*
D03*
X4106Y1486D02*
D03*
Y1542D02*
D03*
X6655Y1558D02*
D03*
Y1502D02*
D03*
X6661Y1954D02*
D03*
Y1898D02*
D03*
X6655Y4002D02*
D03*
Y4058D02*
D03*
X7630Y1558D02*
D03*
Y1502D02*
D03*
Y2002D02*
D03*
Y2058D02*
D03*
Y4058D02*
D03*
Y4002D02*
D03*
Y3502D02*
D03*
Y3558D02*
D03*
X4010Y1486D02*
D03*
Y1542D02*
D03*
X7634Y3016D02*
D03*
Y3072D02*
D03*
X5715Y3682D02*
D03*
Y3738D02*
D03*
D52*
X4129Y2327D02*
D03*
Y2296D02*
D03*
Y2264D02*
D03*
Y2233D02*
D03*
Y2201D02*
D03*
Y2170D02*
D03*
X4343D02*
D03*
Y2201D02*
D03*
Y2233D02*
D03*
Y2264D02*
D03*
Y2296D02*
D03*
Y2327D02*
D03*
X4342Y2099D02*
D03*
Y2067D02*
D03*
Y2036D02*
D03*
Y2004D02*
D03*
Y1973D02*
D03*
Y1941D02*
D03*
X4128D02*
D03*
Y1973D02*
D03*
Y2004D02*
D03*
Y2036D02*
D03*
Y2067D02*
D03*
Y2099D02*
D03*
D53*
X4236Y2249D02*
D03*
X4235Y2020D02*
D03*
D54*
X2915Y2348D02*
D03*
X3171D02*
D03*
X1712Y1805D02*
D03*
X1968D02*
D03*
D55*
X3137Y3955D02*
D03*
X3193D02*
D03*
X4001Y2140D02*
D03*
X4057D02*
D03*
X4335Y2608D02*
D03*
X4391D02*
D03*
X3137Y4030D02*
D03*
X3193D02*
D03*
Y3880D02*
D03*
X3137D02*
D03*
D56*
X5909Y3673D02*
D03*
Y3747D02*
D03*
X5821Y3710D02*
D03*
X3967Y1603D02*
D03*
Y1678D02*
D03*
X3878Y1641D02*
D03*
D57*
X4235Y2477D02*
D03*
D58*
X4332Y2556D02*
D03*
Y2524D02*
D03*
Y2493D02*
D03*
Y2461D02*
D03*
Y2430D02*
D03*
Y2398D02*
D03*
X4138D02*
D03*
Y2430D02*
D03*
Y2461D02*
D03*
Y2493D02*
D03*
Y2524D02*
D03*
Y2556D02*
D03*
D59*
X4542Y1253D02*
D03*
X4334D02*
D03*
D60*
X1730Y1305D02*
D03*
X1780D02*
D03*
Y1525D02*
D03*
X1730D02*
D03*
X1680D02*
D03*
X1630D02*
D03*
X1680Y1305D02*
D03*
X1630D02*
D03*
D61*
X3276Y4125D02*
D03*
Y4175D02*
D03*
Y4225D02*
D03*
Y4275D02*
D03*
X3054Y4125D02*
D03*
Y4175D02*
D03*
Y4225D02*
D03*
Y4275D02*
D03*
D62*
X3058Y4550D02*
D03*
Y4500D02*
D03*
Y4450D02*
D03*
Y4400D02*
D03*
X3272Y4550D02*
D03*
Y4500D02*
D03*
Y4450D02*
D03*
Y4400D02*
D03*
D63*
X3748Y1453D02*
D03*
Y1428D02*
D03*
Y1402D02*
D03*
Y1377D02*
D03*
X3852D02*
D03*
Y1402D02*
D03*
Y1428D02*
D03*
Y1453D02*
D03*
D64*
X1913Y3000D02*
D03*
X1707D02*
D03*
D65*
X678Y2384D02*
D03*
Y2211D02*
D03*
X1072Y2384D02*
D03*
Y2211D02*
D03*
Y1412D02*
D03*
Y1585D02*
D03*
X678Y1412D02*
D03*
Y1585D02*
D03*
D66*
X2352Y2988D02*
D03*
Y1768D02*
D03*
X2135D02*
D03*
X2568Y1964D02*
D03*
X2135Y3224D02*
D03*
Y4208D02*
D03*
X2352D02*
D03*
X2568D02*
D03*
X2135Y4012D02*
D03*
X2352D02*
D03*
X2568D02*
D03*
X2135Y3815D02*
D03*
X2352D02*
D03*
X2568D02*
D03*
X2135Y3618D02*
D03*
X2352D02*
D03*
X2568D02*
D03*
X2135Y3421D02*
D03*
X2352D02*
D03*
X2568D02*
D03*
X2352Y3224D02*
D03*
X2568D02*
D03*
X2135Y2988D02*
D03*
X2568D02*
D03*
X2135Y2752D02*
D03*
X2352D02*
D03*
X2568D02*
D03*
X2135Y2555D02*
D03*
X2352D02*
D03*
X2568D02*
D03*
X2135Y2358D02*
D03*
X2352D02*
D03*
X2568D02*
D03*
X2135Y2161D02*
D03*
X2352D02*
D03*
X2135Y1964D02*
D03*
X2352D02*
D03*
X2568Y1768D02*
D03*
Y2161D02*
D03*
X5176Y2752D02*
D03*
X5393Y3815D02*
D03*
Y4012D02*
D03*
X5176Y4208D02*
D03*
X5393D02*
D03*
X5609D02*
D03*
X5176Y4012D02*
D03*
X5609D02*
D03*
X5176Y3815D02*
D03*
X5609D02*
D03*
X5176Y3618D02*
D03*
X5393D02*
D03*
X5609D02*
D03*
X5176Y3421D02*
D03*
X5393D02*
D03*
X5609D02*
D03*
X5176Y3224D02*
D03*
X5393D02*
D03*
X5609D02*
D03*
X5176Y2988D02*
D03*
X5393D02*
D03*
X5609D02*
D03*
X5393Y2752D02*
D03*
X5609D02*
D03*
X5176Y2555D02*
D03*
X5393D02*
D03*
X5609D02*
D03*
X5176Y2358D02*
D03*
X5609D02*
D03*
X5176Y2161D02*
D03*
X5393D02*
D03*
X5609D02*
D03*
X5176Y1964D02*
D03*
X5393D02*
D03*
X5609D02*
D03*
X5176Y1768D02*
D03*
X5609D02*
D03*
X5393Y2358D02*
D03*
Y1768D02*
D03*
D67*
X1731Y2211D02*
D03*
X1831D02*
D03*
X1931D02*
D03*
X3636Y1943D02*
D03*
X3536D02*
D03*
X3436D02*
D03*
D68*
X3819Y1964D02*
D03*
X1240Y2832D02*
D03*
X3428Y1396D02*
D03*
X3328Y1524D02*
D03*
X5915Y1180D02*
D03*
X3954Y4680D02*
D03*
X4081Y1137D02*
D03*
X4415Y1419D02*
D03*
X756Y3657D02*
D03*
D69*
X3328Y1396D02*
D03*
X3428Y1524D02*
D03*
D70*
X6130Y4535D02*
D03*
X6030D02*
D03*
X5930D02*
D03*
X5830D02*
D03*
X5730D02*
D03*
X5855Y3275D02*
D03*
X5955D02*
D03*
X6055D02*
D03*
X6155D02*
D03*
X6255D02*
D03*
X4185Y4240D02*
D03*
Y4140D02*
D03*
Y4040D02*
D03*
Y3940D02*
D03*
Y3840D02*
D03*
Y3105D02*
D03*
Y3205D02*
D03*
Y3305D02*
D03*
Y3405D02*
D03*
Y3505D02*
D03*
D71*
X5630Y4535D02*
D03*
X6355Y3275D02*
D03*
D72*
X3618Y3290D02*
D03*
Y3390D02*
D03*
X3718Y4490D02*
D03*
Y4390D02*
D03*
X3618Y4490D02*
D03*
Y4390D02*
D03*
X3718Y4290D02*
D03*
Y4190D02*
D03*
Y4090D02*
D03*
Y3990D02*
D03*
Y3890D02*
D03*
Y3790D02*
D03*
Y3690D02*
D03*
Y3590D02*
D03*
Y3490D02*
D03*
Y3390D02*
D03*
Y3290D02*
D03*
Y3190D02*
D03*
Y3090D02*
D03*
X3618Y4290D02*
D03*
Y4190D02*
D03*
Y4090D02*
D03*
Y3990D02*
D03*
Y3890D02*
D03*
Y3790D02*
D03*
Y3690D02*
D03*
Y3590D02*
D03*
Y3490D02*
D03*
Y3190D02*
D03*
X989Y4490D02*
D03*
Y4390D02*
D03*
X889Y4490D02*
D03*
Y4390D02*
D03*
X989Y4290D02*
D03*
Y4190D02*
D03*
Y4090D02*
D03*
Y3990D02*
D03*
Y3790D02*
D03*
Y3690D02*
D03*
Y3590D02*
D03*
Y3490D02*
D03*
Y3390D02*
D03*
Y3290D02*
D03*
Y3190D02*
D03*
Y3090D02*
D03*
X889Y4290D02*
D03*
Y4190D02*
D03*
Y4090D02*
D03*
Y3990D02*
D03*
Y3890D02*
D03*
Y3790D02*
D03*
Y3690D02*
D03*
Y3490D02*
D03*
Y3390D02*
D03*
Y3290D02*
D03*
Y3190D02*
D03*
X989Y3890D02*
D03*
X889Y3590D02*
D03*
D73*
X3618Y3090D02*
D03*
X889D02*
D03*
D74*
X6086Y2287D02*
D03*
X6286D02*
D03*
D75*
X7249Y4543D02*
D03*
X7223Y2413D02*
D03*
X7244Y3152D02*
D03*
X7250Y3590D02*
D03*
X8221Y2601D02*
D03*
X8220Y2090D02*
D03*
X8225Y4050D02*
D03*
X8221Y3581D02*
D03*
X7222Y1499D02*
D03*
X7223Y1951D02*
D03*
X7250Y4050D02*
D03*
X8220Y1590D02*
D03*
X8221Y3085D02*
D03*
X7945Y4543D02*
D03*
D76*
X6859D02*
D03*
Y4677D02*
D03*
X7249D02*
D03*
X7223Y2547D02*
D03*
X6833D02*
D03*
Y2413D02*
D03*
X6854Y3152D02*
D03*
Y3286D02*
D03*
X7244D02*
D03*
X6860Y3590D02*
D03*
Y3723D02*
D03*
X7250D02*
D03*
X8221Y2735D02*
D03*
X7831D02*
D03*
Y2601D02*
D03*
X7830Y2090D02*
D03*
Y2223D02*
D03*
X8220D02*
D03*
X8225Y4184D02*
D03*
X7835D02*
D03*
Y4050D02*
D03*
X8221Y3715D02*
D03*
X7831D02*
D03*
Y3581D02*
D03*
X7222Y1633D02*
D03*
X6832D02*
D03*
Y1499D02*
D03*
X7223Y2085D02*
D03*
X6833D02*
D03*
Y1951D02*
D03*
X7250Y4184D02*
D03*
X6860D02*
D03*
Y4050D02*
D03*
X8220Y1723D02*
D03*
X7830D02*
D03*
Y1590D02*
D03*
X7831Y3085D02*
D03*
Y3219D02*
D03*
X8221D02*
D03*
X7555Y4543D02*
D03*
Y4677D02*
D03*
X7945D02*
D03*
D77*
X6944Y2846D02*
D03*
D78*
X7160D02*
D03*
D79*
X4185Y4340D02*
D03*
Y3005D02*
D03*
D80*
X3784Y1603D02*
D03*
D81*
X1442Y1189D02*
D03*
D82*
X7108Y1985D02*
D03*
X7099Y1652D02*
D03*
X1130Y2725D02*
D03*
X6500Y2422D02*
D03*
X6598Y2389D02*
D03*
X6609Y1980D02*
D03*
X3791Y1296D02*
D03*
X3800Y1344D02*
D03*
X3706Y1329D02*
D03*
X3968Y1151D02*
D03*
X4004Y1066D02*
D03*
X3968Y1108D02*
D03*
X4004Y1188D02*
D03*
Y1151D02*
D03*
Y1108D02*
D03*
X3968Y1066D02*
D03*
Y1188D02*
D03*
X3516Y1526D02*
D03*
X7750Y1384D02*
D03*
X4070Y2296D02*
D03*
X4193Y1401D02*
D03*
X3780Y2366D02*
D03*
X3827Y2356D02*
D03*
X3747Y2517D02*
D03*
X3092Y1453D02*
D03*
Y1411D02*
D03*
Y1509D02*
D03*
Y1554D02*
D03*
X3120Y2117D02*
D03*
X3027D02*
D03*
X2792Y1892D02*
D03*
X2747D02*
D03*
X2703D02*
D03*
X2655D02*
D03*
X2792Y1933D02*
D03*
X2747D02*
D03*
X2703D02*
D03*
X2655D02*
D03*
X1182Y4241D02*
D03*
X1155Y4214D02*
D03*
X3651Y2207D02*
D03*
X2525Y2062D02*
D03*
X2905Y2565D02*
D03*
X4057Y1542D02*
D03*
X3915Y1396D02*
D03*
X1597Y2775D02*
D03*
X1548Y2099D02*
D03*
X1597Y2530D02*
D03*
X4060Y1484D02*
D03*
X1467Y2340D02*
D03*
X2774Y2886D02*
D03*
X2789Y2927D02*
D03*
X2795Y2972D02*
D03*
X2840Y3145D02*
D03*
X2820Y3070D02*
D03*
X2765Y2735D02*
D03*
X3938Y2149D02*
D03*
X3977Y2269D02*
D03*
X6529Y2598D02*
D03*
X4239Y2373D02*
D03*
X6500Y2514D02*
D03*
X6577Y2455D02*
D03*
X5512Y2118D02*
D03*
X7143Y3726D02*
D03*
X7038Y2648D02*
D03*
X7005Y2470D02*
D03*
X4056Y2632D02*
D03*
X3010Y2700D02*
D03*
X2945Y3140D02*
D03*
X3054Y2690D02*
D03*
X2975Y3172D02*
D03*
X2372Y2667D02*
D03*
X3535Y3765D02*
D03*
X3366Y4705D02*
D03*
X3526Y4614D02*
D03*
X4093Y4436D02*
D03*
X4714Y4832D02*
D03*
X5501Y4254D02*
D03*
X1724Y3991D02*
D03*
X1694Y3967D02*
D03*
X1641Y2859D02*
D03*
X1670Y2834D02*
D03*
X1971Y3536D02*
D03*
X3120Y2705D02*
D03*
X3055Y3195D02*
D03*
X3075Y2730D02*
D03*
X3020Y3165D02*
D03*
X2850Y2595D02*
D03*
X4130Y2880D02*
D03*
X4600Y2552D02*
D03*
X2895Y3125D02*
D03*
Y2715D02*
D03*
X4645Y2560D02*
D03*
X2935Y3095D02*
D03*
X4070Y2875D02*
D03*
X2955Y2704D02*
D03*
X2805Y2690D02*
D03*
X2790Y2650D02*
D03*
X3635Y3032D02*
D03*
X4003D02*
D03*
X4940Y3956D02*
D03*
X3980Y3220D02*
D03*
X3960Y3095D02*
D03*
X3802Y4116D02*
D03*
X2729Y3920D02*
D03*
X2700Y3955D02*
D03*
X2769Y3906D02*
D03*
X2757Y3385D02*
D03*
X2700Y3390D02*
D03*
X2729Y3420D02*
D03*
X1517Y2067D02*
D03*
X5609Y3725D02*
D03*
X5700Y2395D02*
D03*
X5476Y2895D02*
D03*
X5425Y2090D02*
D03*
X7425Y3835D02*
D03*
X5770Y2765D02*
D03*
X3970Y3315D02*
D03*
X3915Y3335D02*
D03*
X3880Y3385D02*
D03*
X3932Y3225D02*
D03*
X4090Y2920D02*
D03*
X4695Y2705D02*
D03*
X4985Y3780D02*
D03*
X4660Y4690D02*
D03*
X4650Y4755D02*
D03*
X4625Y4790D02*
D03*
Y4722D02*
D03*
X3320Y4590D02*
D03*
X3475Y4615D02*
D03*
X2550Y4680D02*
D03*
X2505Y4675D02*
D03*
X4685Y2576D02*
D03*
X4740Y2525D02*
D03*
X3462Y3435D02*
D03*
Y3615D02*
D03*
X3820Y3635D02*
D03*
X2670Y3421D02*
D03*
X2665Y3575D02*
D03*
X7335Y3815D02*
D03*
Y3935D02*
D03*
X3490Y4495D02*
D03*
X3425Y4265D02*
D03*
X3920Y2440D02*
D03*
X7460Y4390D02*
D03*
X5730Y2720D02*
D03*
X1620Y3000D02*
D03*
D83*
X7038Y2231D02*
D03*
X3139Y1484D02*
D03*
X2724Y1981D02*
D03*
X6541Y1423D02*
D03*
X3075Y2143D02*
D03*
X2895Y1913D02*
D03*
X6319Y1428D02*
D03*
X7581Y2360D02*
D03*
X8225Y3390D02*
D03*
X6662Y2671D02*
D03*
X6492Y3121D02*
D03*
X6319Y1800D02*
D03*
D84*
X8215Y1265D02*
D03*
X421Y1163D02*
D03*
X771Y4722D02*
D03*
X6319Y2752D02*
D03*
X4200Y2735D02*
D03*
Y4595D02*
D03*
X3657Y2880D02*
D03*
X8250Y4610D02*
D03*
X1206Y4459D02*
D03*
X928Y2878D02*
D03*
X6320Y4600D02*
D03*
D85*
X453Y2225D02*
D03*
X1298D02*
D03*
X1298Y1571D02*
D03*
X453D02*
D03*
M02*
