G04*
G04 #@! TF.GenerationSoftware,Altium Limited,Altium Designer,22.10.1 (41)*
G04*
G04 Layer_Color=16711935*
%FSLAX23Y23*%
%MOIN*%
G70*
G04*
G04 #@! TF.SameCoordinates,75F1CFA2-9E1D-427A-8FB2-C6D19FE5AEEE*
G04*
G04*
G04 #@! TF.FilePolarity,Negative*
G04*
G01*
G75*
%ADD46R,0.034X0.041*%
%ADD49R,0.036X0.036*%
%ADD50R,0.041X0.037*%
%ADD51R,0.041X0.034*%
%ADD55R,0.037X0.041*%
G04:AMPARAMS|DCode=61|XSize=32mil|YSize=71mil|CornerRadius=5mil|HoleSize=0mil|Usage=FLASHONLY|Rotation=270.000|XOffset=0mil|YOffset=0mil|HoleType=Round|Shape=RoundedRectangle|*
%AMROUNDEDRECTD61*
21,1,0.032,0.061,0,0,270.0*
21,1,0.022,0.071,0,0,270.0*
1,1,0.010,-0.031,-0.011*
1,1,0.010,-0.031,0.011*
1,1,0.010,0.031,0.011*
1,1,0.010,0.031,-0.011*
%
%ADD61ROUNDEDRECTD61*%
%ADD65C,0.144*%
%ADD66C,0.093*%
%ADD67C,0.077*%
%ADD68C,0.065*%
%ADD69R,0.065X0.065*%
%ADD70C,0.061*%
%ADD71R,0.061X0.061*%
%ADD72C,0.066*%
%ADD73R,0.066X0.066*%
%ADD74C,0.086*%
%ADD75R,0.089X0.089*%
%ADD76C,0.089*%
%ADD77C,0.083*%
%ADD78R,0.083X0.083*%
%ADD79R,0.061X0.061*%
%ADD80O,0.065X0.065*%
%ADD81O,0.065X0.067*%
%ADD82C,0.037*%
%ADD83C,0.056*%
%ADD84C,0.256*%
%ADD85C,0.176*%
%ADD129R,0.136X0.106*%
%ADD130R,0.106X0.136*%
%ADD131R,0.053X0.041*%
%ADD132R,0.053X0.041*%
%ADD133R,0.030X0.051*%
D46*
X3724Y1611D02*
D03*
X3668D02*
D03*
D49*
X3415Y2358D02*
D03*
Y2303D02*
D03*
X3685Y2315D02*
D03*
Y2370D02*
D03*
D50*
X3535Y2315D02*
D03*
Y2370D02*
D03*
X3610Y2315D02*
D03*
Y2370D02*
D03*
X4026Y2365D02*
D03*
Y2310D02*
D03*
X3516Y1232D02*
D03*
Y1288D02*
D03*
X3591Y1232D02*
D03*
Y1288D02*
D03*
X3666D02*
D03*
Y1232D02*
D03*
D51*
X7035Y1725D02*
D03*
Y1670D02*
D03*
X7188Y1199D02*
D03*
Y1255D02*
D03*
X7058Y3726D02*
D03*
Y3670D02*
D03*
X7068Y2089D02*
D03*
Y2033D02*
D03*
X1335Y2013D02*
D03*
Y1957D02*
D03*
X3741Y1232D02*
D03*
Y1288D02*
D03*
D55*
X4008Y2528D02*
D03*
X3952D02*
D03*
X3397Y4310D02*
D03*
X3453D02*
D03*
X3397Y4535D02*
D03*
X3453D02*
D03*
Y4460D02*
D03*
X3397D02*
D03*
X3453Y4385D02*
D03*
X3397D02*
D03*
D61*
X3585Y1385D02*
D03*
Y1435D02*
D03*
Y1485D02*
D03*
Y1535D02*
D03*
X3808Y1385D02*
D03*
Y1435D02*
D03*
Y1485D02*
D03*
Y1535D02*
D03*
D65*
X678Y2384D02*
D03*
Y2211D02*
D03*
X1072Y2384D02*
D03*
Y2211D02*
D03*
Y1412D02*
D03*
Y1585D02*
D03*
X678Y1412D02*
D03*
Y1585D02*
D03*
D66*
X2352Y2988D02*
D03*
Y1768D02*
D03*
X2135D02*
D03*
X2568Y1964D02*
D03*
X2135Y3224D02*
D03*
Y4208D02*
D03*
X2352D02*
D03*
X2568D02*
D03*
X2135Y4012D02*
D03*
X2352D02*
D03*
X2568D02*
D03*
X2135Y3815D02*
D03*
X2352D02*
D03*
X2568D02*
D03*
X2135Y3618D02*
D03*
X2352D02*
D03*
X2568D02*
D03*
X2135Y3421D02*
D03*
X2352D02*
D03*
X2568D02*
D03*
X2352Y3224D02*
D03*
X2568D02*
D03*
X2135Y2988D02*
D03*
X2568D02*
D03*
X2135Y2752D02*
D03*
X2352D02*
D03*
X2568D02*
D03*
X2135Y2555D02*
D03*
X2352D02*
D03*
X2568D02*
D03*
X2135Y2358D02*
D03*
X2352D02*
D03*
X2568D02*
D03*
X2135Y2161D02*
D03*
X2352D02*
D03*
X2135Y1964D02*
D03*
X2352D02*
D03*
X2568Y1768D02*
D03*
Y2161D02*
D03*
X5176Y2752D02*
D03*
X5393Y3815D02*
D03*
Y4012D02*
D03*
X5176Y4208D02*
D03*
X5393D02*
D03*
X5609D02*
D03*
X5176Y4012D02*
D03*
X5609D02*
D03*
X5176Y3815D02*
D03*
X5609D02*
D03*
X5176Y3618D02*
D03*
X5393D02*
D03*
X5609D02*
D03*
X5176Y3421D02*
D03*
X5393D02*
D03*
X5609D02*
D03*
X5176Y3224D02*
D03*
X5393D02*
D03*
X5609D02*
D03*
X5176Y2988D02*
D03*
X5393D02*
D03*
X5609D02*
D03*
X5393Y2752D02*
D03*
X5609D02*
D03*
X5176Y2555D02*
D03*
X5393D02*
D03*
X5609D02*
D03*
X5176Y2358D02*
D03*
X5609D02*
D03*
X5176Y2161D02*
D03*
X5393D02*
D03*
X5609D02*
D03*
X5176Y1964D02*
D03*
X5393D02*
D03*
X5609D02*
D03*
X5176Y1768D02*
D03*
X5609D02*
D03*
X5393Y2358D02*
D03*
Y1768D02*
D03*
D67*
X1731Y2211D02*
D03*
X1831D02*
D03*
X1931D02*
D03*
X3636Y1943D02*
D03*
X3536D02*
D03*
X3436D02*
D03*
D68*
X3819Y1964D02*
D03*
X1240Y2832D02*
D03*
X3428Y1396D02*
D03*
X3328Y1524D02*
D03*
X5915Y1180D02*
D03*
X3954Y4680D02*
D03*
X4081Y1137D02*
D03*
X4415Y1419D02*
D03*
X756Y3657D02*
D03*
D69*
X3328Y1396D02*
D03*
X3428Y1524D02*
D03*
D70*
X6130Y4535D02*
D03*
X6030D02*
D03*
X5930D02*
D03*
X5830D02*
D03*
X5730D02*
D03*
X5855Y3275D02*
D03*
X5955D02*
D03*
X6055D02*
D03*
X6155D02*
D03*
X6255D02*
D03*
X4185Y4240D02*
D03*
Y4140D02*
D03*
Y4040D02*
D03*
Y3940D02*
D03*
Y3840D02*
D03*
Y3105D02*
D03*
Y3205D02*
D03*
Y3305D02*
D03*
Y3405D02*
D03*
Y3505D02*
D03*
D71*
X5630Y4535D02*
D03*
X6355Y3275D02*
D03*
D72*
X3618Y3290D02*
D03*
Y3390D02*
D03*
X3718Y4490D02*
D03*
Y4390D02*
D03*
X3618Y4490D02*
D03*
Y4390D02*
D03*
X3718Y4290D02*
D03*
Y4190D02*
D03*
Y4090D02*
D03*
Y3990D02*
D03*
Y3890D02*
D03*
Y3790D02*
D03*
Y3690D02*
D03*
Y3590D02*
D03*
Y3490D02*
D03*
Y3390D02*
D03*
Y3290D02*
D03*
Y3190D02*
D03*
Y3090D02*
D03*
X3618Y4290D02*
D03*
Y4190D02*
D03*
Y4090D02*
D03*
Y3990D02*
D03*
Y3890D02*
D03*
Y3790D02*
D03*
Y3690D02*
D03*
Y3590D02*
D03*
Y3490D02*
D03*
Y3190D02*
D03*
X989Y4490D02*
D03*
Y4390D02*
D03*
X889Y4490D02*
D03*
Y4390D02*
D03*
X989Y4290D02*
D03*
Y4190D02*
D03*
Y4090D02*
D03*
Y3990D02*
D03*
Y3790D02*
D03*
Y3690D02*
D03*
Y3590D02*
D03*
Y3490D02*
D03*
Y3390D02*
D03*
Y3290D02*
D03*
Y3190D02*
D03*
Y3090D02*
D03*
X889Y4290D02*
D03*
Y4190D02*
D03*
Y4090D02*
D03*
Y3990D02*
D03*
Y3890D02*
D03*
Y3790D02*
D03*
Y3690D02*
D03*
Y3490D02*
D03*
Y3390D02*
D03*
Y3290D02*
D03*
Y3190D02*
D03*
X989Y3890D02*
D03*
X889Y3590D02*
D03*
D73*
X3618Y3090D02*
D03*
X889D02*
D03*
D74*
X6086Y2287D02*
D03*
X6286D02*
D03*
D75*
X7249Y4543D02*
D03*
X7223Y2413D02*
D03*
X7244Y3152D02*
D03*
X7250Y3590D02*
D03*
X8221Y2601D02*
D03*
X8220Y2090D02*
D03*
X8225Y4050D02*
D03*
X8221Y3581D02*
D03*
X7222Y1499D02*
D03*
X7223Y1951D02*
D03*
X7250Y4050D02*
D03*
X8220Y1590D02*
D03*
X8221Y3085D02*
D03*
X7945Y4543D02*
D03*
D76*
X6859D02*
D03*
Y4677D02*
D03*
X7249D02*
D03*
X7223Y2547D02*
D03*
X6833D02*
D03*
Y2413D02*
D03*
X6854Y3152D02*
D03*
Y3286D02*
D03*
X7244D02*
D03*
X6860Y3590D02*
D03*
Y3723D02*
D03*
X7250D02*
D03*
X8221Y2735D02*
D03*
X7831D02*
D03*
Y2601D02*
D03*
X7830Y2090D02*
D03*
Y2223D02*
D03*
X8220D02*
D03*
X8225Y4184D02*
D03*
X7835D02*
D03*
Y4050D02*
D03*
X8221Y3715D02*
D03*
X7831D02*
D03*
Y3581D02*
D03*
X7222Y1633D02*
D03*
X6832D02*
D03*
Y1499D02*
D03*
X7223Y2085D02*
D03*
X6833D02*
D03*
Y1951D02*
D03*
X7250Y4184D02*
D03*
X6860D02*
D03*
Y4050D02*
D03*
X8220Y1723D02*
D03*
X7830D02*
D03*
Y1590D02*
D03*
X7831Y3085D02*
D03*
Y3219D02*
D03*
X8221D02*
D03*
X7555Y4543D02*
D03*
Y4677D02*
D03*
X7945D02*
D03*
D77*
X6944Y2846D02*
D03*
D78*
X7160D02*
D03*
D79*
X4185Y4340D02*
D03*
Y3005D02*
D03*
D80*
X3784Y1603D02*
D03*
D81*
X1442Y1189D02*
D03*
D82*
X7108Y1985D02*
D03*
X7099Y1652D02*
D03*
X1130Y2725D02*
D03*
X6500Y2422D02*
D03*
X6598Y2389D02*
D03*
X6609Y1980D02*
D03*
X3791Y1296D02*
D03*
X3800Y1344D02*
D03*
X3706Y1329D02*
D03*
X3968Y1151D02*
D03*
X4004Y1066D02*
D03*
X3968Y1108D02*
D03*
X4004Y1188D02*
D03*
Y1151D02*
D03*
Y1108D02*
D03*
X3968Y1066D02*
D03*
Y1188D02*
D03*
X3516Y1526D02*
D03*
X7750Y1384D02*
D03*
X4070Y2296D02*
D03*
X4193Y1401D02*
D03*
X3780Y2366D02*
D03*
X3827Y2356D02*
D03*
X3747Y2517D02*
D03*
X3092Y1453D02*
D03*
Y1411D02*
D03*
Y1509D02*
D03*
Y1554D02*
D03*
X3120Y2117D02*
D03*
X3027D02*
D03*
X2792Y1892D02*
D03*
X2747D02*
D03*
X2703D02*
D03*
X2655D02*
D03*
X2792Y1933D02*
D03*
X2747D02*
D03*
X2703D02*
D03*
X2655D02*
D03*
X1182Y4241D02*
D03*
X1155Y4214D02*
D03*
X3651Y2207D02*
D03*
X2525Y2062D02*
D03*
X2905Y2565D02*
D03*
X4057Y1542D02*
D03*
X3915Y1396D02*
D03*
X1597Y2775D02*
D03*
X1548Y2099D02*
D03*
X1597Y2530D02*
D03*
X4060Y1484D02*
D03*
X1467Y2340D02*
D03*
X2774Y2886D02*
D03*
X2789Y2927D02*
D03*
X2795Y2972D02*
D03*
X2840Y3145D02*
D03*
X2820Y3070D02*
D03*
X2765Y2735D02*
D03*
X3938Y2149D02*
D03*
X3977Y2269D02*
D03*
X6529Y2598D02*
D03*
X4239Y2373D02*
D03*
X6500Y2514D02*
D03*
X6577Y2455D02*
D03*
X5512Y2118D02*
D03*
X7143Y3726D02*
D03*
X7038Y2648D02*
D03*
X7005Y2470D02*
D03*
X4056Y2632D02*
D03*
X3010Y2700D02*
D03*
X2945Y3140D02*
D03*
X3054Y2690D02*
D03*
X2975Y3172D02*
D03*
X2372Y2667D02*
D03*
X3535Y3765D02*
D03*
X3366Y4705D02*
D03*
X3526Y4614D02*
D03*
X4093Y4436D02*
D03*
X4714Y4832D02*
D03*
X5501Y4254D02*
D03*
X1724Y3991D02*
D03*
X1694Y3967D02*
D03*
X1641Y2859D02*
D03*
X1670Y2834D02*
D03*
X1971Y3536D02*
D03*
X3120Y2705D02*
D03*
X3055Y3195D02*
D03*
X3075Y2730D02*
D03*
X3020Y3165D02*
D03*
X2850Y2595D02*
D03*
X4130Y2880D02*
D03*
X4600Y2552D02*
D03*
X2895Y3125D02*
D03*
Y2715D02*
D03*
X4645Y2560D02*
D03*
X2935Y3095D02*
D03*
X4070Y2875D02*
D03*
X2955Y2704D02*
D03*
X2805Y2690D02*
D03*
X2790Y2650D02*
D03*
X3635Y3032D02*
D03*
X4003D02*
D03*
X4940Y3956D02*
D03*
X3980Y3220D02*
D03*
X3960Y3095D02*
D03*
X3802Y4116D02*
D03*
X2729Y3920D02*
D03*
X2700Y3955D02*
D03*
X2769Y3906D02*
D03*
X2757Y3385D02*
D03*
X2700Y3390D02*
D03*
X2729Y3420D02*
D03*
X1517Y2067D02*
D03*
X5609Y3725D02*
D03*
X5700Y2395D02*
D03*
X5476Y2895D02*
D03*
X5425Y2090D02*
D03*
X7425Y3835D02*
D03*
X5770Y2765D02*
D03*
X3970Y3315D02*
D03*
X3915Y3335D02*
D03*
X3880Y3385D02*
D03*
X3932Y3225D02*
D03*
X4090Y2920D02*
D03*
X4695Y2705D02*
D03*
X4985Y3780D02*
D03*
X4660Y4690D02*
D03*
X4650Y4755D02*
D03*
X4625Y4790D02*
D03*
Y4722D02*
D03*
X3320Y4590D02*
D03*
X3475Y4615D02*
D03*
X2550Y4680D02*
D03*
X2505Y4675D02*
D03*
X4685Y2576D02*
D03*
X4740Y2525D02*
D03*
X3462Y3435D02*
D03*
Y3615D02*
D03*
X3820Y3635D02*
D03*
X2670Y3421D02*
D03*
X2665Y3575D02*
D03*
X7335Y3815D02*
D03*
Y3935D02*
D03*
X3490Y4495D02*
D03*
X3425Y4265D02*
D03*
X3920Y2440D02*
D03*
X7460Y4390D02*
D03*
X5730Y2720D02*
D03*
X1620Y3000D02*
D03*
D83*
X7038Y2231D02*
D03*
X3139Y1484D02*
D03*
X2724Y1981D02*
D03*
X6541Y1423D02*
D03*
X3075Y2143D02*
D03*
X2895Y1913D02*
D03*
X6319Y1428D02*
D03*
X7581Y2360D02*
D03*
X8225Y3390D02*
D03*
X6662Y2671D02*
D03*
X6492Y3121D02*
D03*
X6319Y1800D02*
D03*
D84*
X8215Y1265D02*
D03*
X421Y1163D02*
D03*
X771Y4722D02*
D03*
X6319Y2752D02*
D03*
X4200Y2735D02*
D03*
Y4595D02*
D03*
X3657Y2880D02*
D03*
X8250Y4610D02*
D03*
X1206Y4459D02*
D03*
X928Y2878D02*
D03*
X6320Y4600D02*
D03*
D85*
X453Y2225D02*
D03*
X1298D02*
D03*
X1298Y1571D02*
D03*
X453D02*
D03*
D129*
X7492Y1945D02*
D03*
Y1677D02*
D03*
D130*
X7645Y1295D02*
D03*
X7377D02*
D03*
D131*
X1185Y2045D02*
D03*
D132*
Y1925D02*
D03*
D133*
X3425Y4141D02*
D03*
X3462Y4229D02*
D03*
X3388D02*
D03*
M02*
